Avatar (2009) PROPER DVDSCR XviD-MAX   
https://torrents.thepiratebay.org/5336339/Avatar_(2009)_PROPER_DVDSCR_XviD-MAX.5336339.TPB.torrent 

Avatar[2009]DvDrip[Eng]-FXG   
http://torrents.thepiratebay.org/5486729/Avatar%5B2009%5DDvDrip%5BEng%5D-FXG.5486729.TPB.torrent

Avatar (2009) 480p BRRiP XviD AC3 ViSiON   
http://torrents.thepiratebay.org/5511786/Avatar_(2009)_480p_BRRiP_XviD_AC3_ViSiON.5511786.TPB.torrent

Avatar 720p Bluray x264-CBGB  
http://torrents.thepiratebay.org/5511225/Avatar_720p_Bluray_x264-CBGB.5511225.TPB.torrent

Avatar 2009 1080p BluRay X264-AMIABLE  
http://torrents.thepiratebay.org/5511739/Avatar_2009_1080p_BluRay_X264-AMIABLE.5511739.TPB.torrent

Avatar (2009) PROPER TS XviD-MAX 

Format                           : AVI
Format/Info                      : Audio Video Interleave
Format profile                   : OpenDML
File size                        : 1.36 GiB
Duration                         : 2h 33mn
Overall bit rate                 : 1 268 Kbps
Writing application              : VirtualDubMod 1.5.10.2 (build 2542/release)
Writing library                  : VirtualDubMod build 2542/release
Original source form             : MAX TORRENTZ
Copyright                        : SIGISMUNT

Video
ID                               : 0
Format                           : MPEG-4 Visual
Format profile                   : AdvancedSimple[@]L5
Format settings, BVOP            : Yes
Format settings, QPel            : No
Format settings, GMC             : No warppoints
Format settings, Matrix          : Default (H.263)
Muxing mode                      : Packed bitstream
Codec ID                         : XVID
Codec ID/Hint                    : XviD
Duration                         : 2h 33mn
Bit rate                         : 1 121 Kbps
Width                            : 640 pixels
Height                           : 272 pixels
Display aspect ratio             : 2.35:1
Frame rate                       : 25.000 fps
Resolution                       : 24 bits
Colorimetry                      : 4:2:0
Scan type                        : Progressive
Bits/(Pixel*Frame)               : 0.258
Stream size                      : 1.20 GiB (88%)
Writing library                  : XviD 1.2.1 (UTC 2008-12-04)

Audio
ID                               : 1
Format                           : MPEG Audio
Format version                   : Version 1
Format profile                   : Layer 3
Codec ID                         : 55
Codec ID/Hint                    : MP3
Duration                         : 2h 33mn
Bit rate mode                    : Variable
Bit rate                         : 137 Kbps
Nominal bit rate                 : 144 Kbps
Channel(s)                       : 2 channels
Sampling rate                    : 48.0 KHz
Resolution                       : 16 bits
Stream size                      : 151 MiB (11%)
Alignment                        : Aligned on interleaves
Interleave, duration             : 24 ms (0.60 video frame)
Interleave, preload duration     : 212 ms
Title                            : symc2_1
Writing library                  : LAME3.90.
Encoding settings                : -m j -V 4 -q 2 -lowpass 18 --abr 144 
http://www.imdb.com/title/tt0499549/

Screens: 
http://www.postimg.com/image/10000/9085.jpg 
http://www.postimg.com/image/10000/9086.jpg 
http://www.postimg.com/image/10000/9087.jpg 
http://www.postimg.com/image/10000/9088.jpg

ScreenCaps: 
http://www.postimg.com/image/10000/9089.jpg

Avatar (2009) PROPER TS XviD-MAX Torrent Free Download 
http://thepiratebay.org/user/extremezone/0/7

How To Get Your Maxspeed (uTorrent)

Torrent Client - Preferences - Bandwidth - Number of connections - Set aprox. 500 for each 
Torrent Client - Preferences - BiTorrent - Protocol Encryption - Forced
Bandwidth Allocation - High (Set download/upload limit - Unlimited)
Stop Other Active Torrents - Start downloading and wait for connections
Enjoy and Seed for at least 1:1 ratio. Also please spread the link where you found this torrent to your friends.